<?xml version="1.0" encoding="UTF-8"?>
<svg id="Layer_1" data-name="Layer 1" xmlns="http://www.w3.org/2000/svg" viewBox="0 0 115 35">
  <defs>
    <style>
      .cls-1 {
        fill: #e70d85;
      }
    </style>
  </defs>
  <path class="cls-1" d="M18.2,2.16s-1.16,22.31-1.53,24.44h-.41c-.37-2.3-1.51-24.44-1.51-24.44H.18l5.59,32.85h21.5l3.09-18.41,1.4-8.33.35-2.09.67-4.02h-14.58Z"/>
  <path class="cls-1" d="M55.32,11.95V2.16h-20.95l-2.61,14.56v18.29h23.24l.16-9.74h-9.41v-2.95h8.93v-7.79h-8.87v-2.58h9.51ZM32.83,2.16h-1.07v6.11l.35-2.09.72-4.02Z"/>
  <path class="cls-1" d="M56.85,2.17l-.02,9.76h10.03l-7.73,15.19-4.03,7.9,10.07.02c.98-2.72,4.45-6.99,6.58-8.7l12.03-24.12-26.93-.05Z"/>
  <path class="cls-1" d="M58.33,32.54c3.52-6.19,9.84-10.77,17.36-12.23.03,0,.06-.01.09-.02,1.21-.23,2.45-.38,3.72-.45.47-.02.95-.04,1.43-.03.67,0,1.34.03,2,.08,4.79.36,9.21,1.96,12.89,4.47,1.22.83,2.36,1.76,3.41,2.78,2.34,2.27,4.21,4.98,5.46,7.97l-10.56-.02c-2.92-3.95-7.75-6.54-13.22-6.55-.42,0-.83.01-1.24.04-3.12.22-5.99,1.28-8.37,2.94-1.4.98-2.63,2.16-3.63,3.51h-2.48s-6.85-.02-6.85-.02v-2.48Z"/>
  <path class="cls-1" d="M92.1,7.38s-1.17,2.79-2.35,5.61c2.3.31,2.77,1.09,2.84,1.14l2.93,8.07c-7.57-6.1-17.16-4.35-17.16-4.35l7.41-15.64h15.2l13.84,32.85h-11.63s-11-27.29-11.08-27.68Z"/>
</svg>